<mxfile host="Electron" modified="2024-12-10T09:45:06.875Z" agent="Mozilla/5.0 (Windows NT 10.0; Win64; x64) AppleWebKit/537.36 (KHTML, like Gecko) draw.io/24.2.5 Chrome/120.0.6099.109 Electron/28.1.0 Safari/537.36" etag="2CWysnkwPvfkVUJVm3fe" version="24.2.5" type="device">
  <diagram name="第 1 页" id="D2NAqzdusShOmgnxFnS3">
    <mxGraphModel dx="2074" dy="1196" grid="1" gridSize="10" guides="1" tooltips="1" connect="1" arrows="1" fold="1" page="1" pageScale="1" pageWidth="827" pageHeight="1169" math="0" shadow="0">
      <root>
        <mxCell id="0" />
        <mxCell id="1" parent="0" />
        <mxCell id="yEK5gBYYrBqdeFEeZC2t-11" style="edgeStyle=orthogonalEdgeStyle;rounded=0;orthogonalLoop=1;jettySize=auto;html=1;entryX=0;entryY=0.5;entryDx=0;entryDy=0;" parent="1" source="yEK5gBYYrBqdeFEeZC2t-1" target="yEK5gBYYrBqdeFEeZC2t-5" edge="1">
          <mxGeometry relative="1" as="geometry" />
        </mxCell>
        <mxCell id="yEK5gBYYrBqdeFEeZC2t-1" value="polling" style="rounded=1;whiteSpace=wrap;html=1;" parent="1" vertex="1">
          <mxGeometry x="100" y="440" width="80" height="40" as="geometry" />
        </mxCell>
        <mxCell id="VKW-eQmWKRhwMPEQLVL2-2" value="" style="edgeStyle=orthogonalEdgeStyle;rounded=0;orthogonalLoop=1;jettySize=auto;html=1;" parent="1" source="yEK5gBYYrBqdeFEeZC2t-5" target="VKW-eQmWKRhwMPEQLVL2-1" edge="1">
          <mxGeometry relative="1" as="geometry" />
        </mxCell>
        <mxCell id="yEK5gBYYrBqdeFEeZC2t-5" value="async-io" style="rounded=1;whiteSpace=wrap;html=1;" parent="1" vertex="1">
          <mxGeometry x="240" y="440" width="80" height="40" as="geometry" />
        </mxCell>
        <mxCell id="yEK5gBYYrBqdeFEeZC2t-9" value="" style="edgeStyle=orthogonalEdgeStyle;rounded=0;orthogonalLoop=1;jettySize=auto;html=1;" parent="1" source="yEK5gBYYrBqdeFEeZC2t-7" target="yEK5gBYYrBqdeFEeZC2t-8" edge="1">
          <mxGeometry relative="1" as="geometry" />
        </mxCell>
        <mxCell id="yEK5gBYYrBqdeFEeZC2t-7" value="async-task" style="rounded=1;whiteSpace=wrap;html=1;" parent="1" vertex="1">
          <mxGeometry x="100" y="515" width="80" height="40" as="geometry" />
        </mxCell>
        <mxCell id="yEK5gBYYrBqdeFEeZC2t-8" value="async-executor" style="rounded=1;whiteSpace=wrap;html=1;" parent="1" vertex="1">
          <mxGeometry x="240" y="515" width="80" height="40" as="geometry" />
        </mxCell>
        <mxCell id="VKW-eQmWKRhwMPEQLVL2-1" value="async-net" style="rounded=1;whiteSpace=wrap;html=1;" parent="1" vertex="1">
          <mxGeometry x="380" y="440" width="80" height="40" as="geometry" />
        </mxCell>
      </root>
    </mxGraphModel>
  </diagram>
</mxfile>
